<svg version="1.2" xmlns="http://www.w3.org/2000/svg" viewBox="0 0 102 16" width="102" height="16"><style>.a{fill:#8c98a4}</style><path class="a" d="m0.7 6.9c0.5-3.8 4.1-6.7 8.6-6.7 4.4 0 8.1 2.9 8.7 6.7h-5.8c-0.7 0-0.9 0.4-1.1 0.8l-1.8 4.3v-3h-1.9v3.9q1.8 0 3.5 0c0.7-1.3 1.2-2.8 1.9-4.2h5.1c-0.5 3.7-4.2 6.6-8.6 6.6-4.4 0-8.1-2.9-8.6-6.6h5.6c0.7 0 0.9-0.4 1.1-0.8l1.9-4.3v3c0.6 0 1.8 0 1.8 0v-3.9q-1.7 0-3.5 0c-0.7 1.3-1.2 2.8-1.8 4.2 0 0-5.1 0-5.1 0z"/><path fill-rule="evenodd" class="a" d="m25.2 12.4c0 0-0.4 1.6-0.4 1.6h-4.7l4.3-12.6h4.9l4.4 12.6h-4.7l-0.4-1.6zm0.8-3q0 0 0 0zm0 0c0 0 1.7 0 1.7 0l-0.5-2.2q-0.2-0.8-0.3-1.6h-0.1zm8.3-8h4.4v12.6h-4.4zm5.9 0h5.7c2.8 0 4.9 1.5 4.9 4.6 0 2.6-1.5 4.2-4 4.2h-2.3v3.8h-4.3zm4.3 5.6h0.4c0.8 0 1.7-0.2 1.7-1.1 0-1-0.9-1.1-1.7-1.1h-0.4c0 0 0 2.2 0 2.2zm7.3-5.6h4.3v4.2h2.7v-4.2h4.3v12.6h-4.3v-4.4h-2.7v4.4h-4.3zm26 6.3c0 4.1-3 6.5-6.8 6.5-3.7 0-6.8-2.5-6.8-6.5 0-3.9 3.1-6.5 6.8-6.5 3.7 0 6.8 2.5 6.8 6.5zm-9.1 0.1c0 1.4 1 2.4 2.3 2.4 1.4 0 2.3-1 2.3-2.4 0-1.3-0.9-2.5-2.3-2.5-1.4 0-2.3 1.1-2.3 2.5zm10.1-6.4h4.3l4 7h0.1c-0.1-1.1-0.3-2.2-0.3-3.2v-3.8h4.2v12.6h-4.2l-3.9-6.6h-0.2c0.2 0.8 0.3 1.7 0.3 2.5v4.1h-4.3c0 0 0-12.6 0-12.6zm14.2 0h8.3v3.4h-3.8v1.2h3.4v3.3h-3.4v1.2h3.9v3.5h-8.4z"/></svg>