<svg version="1.2" xmlns="http://www.w3.org/2000/svg" viewBox="0 0 1280 171" width="113" height="15"><style>.a{fill:#8c98a4}</style><path fill-rule="evenodd" class="a" d="m1009 5.3c23.5 0.2 24.8 0.3 30.5 2.7 3.8 1.5 8.1 4.5 11.8 8 3.7 3.4 7.1 7.9 9.1 12 2.1 4.1 3.6 8.9 4.1 13 0.6 5.6 0.3 8.3-2.5 19.5-1.8 7.2-4.8 17.5-6.7 23-1.9 5.5-5.7 15-8.4 21-2.7 6-6.8 14.4-9.2 18.5-2.9 5.1-7.3 10.6-14.2 17.5-5.5 5.5-12.5 11.5-15.5 13.2-3 1.8-8.4 4.5-12 5.9-3.6 1.5-9.9 3.5-14 4.6-6.5 1.6-10.6 1.8-31.5 1.6-22.9-0.3-24.3-0.4-30-2.8-3.8-1.5-8.2-4.5-11.8-8-4-3.7-7-7.8-9.3-12.5-2.4-4.8-3.6-9-4-13.5-0.5-5.1 0-8.8 2.1-17.5 1.5-6 4.5-16.2 6.7-22.5 2.2-6.3 6.2-16.5 8.9-22.5 2.7-6 6.8-14.4 9.2-18.5 2.9-5.1 7.3-10.6 14.2-17.5 5.5-5.5 12.5-11.5 15.5-13.2 3-1.8 8.4-4.5 12-5.9 3.6-1.5 9.6-3.5 13.5-4.5 6-1.6 10.4-1.8 31.5-1.6zm-27 23.3c-2.5 1.7-5.9 4.8-7.6 7-1.7 2.1-3.8 5.3-4.7 6.9-0.8 1.6-8.6 22.1-17.2 45.5-13.8 37.5-15.6 43-15.1 47 0.3 2.5 1.3 5.6 2.4 7 1 1.4 3.4 3.6 5.3 4.8 3 2.1 4.3 2.3 11.9 2 7.3-0.3 9.6-0.8 16-3.9 4.9-2.4 8.8-5.2 11.3-8 2.1-2.4 4.7-6 5.7-7.9 1-1.9 8.8-22.6 17.5-46 13.8-37.5 15.6-43 15.1-47-0.3-2.5-1.3-5.6-2.4-7-1-1.4-3.4-3.5-5.3-4.8-2.8-1.8-4.7-2.2-10.4-2.2-3.9 0.1-9.5 0.9-12.5 1.9-3 0.9-7.5 3.1-10 4.7zm277.4-23.6c3.8 0 6.1 0.6 8.9 2.5 2 1.4 4.4 3.9 5.2 5.5 0.8 1.7 1.5 5.1 1.5 7.8 0 2.9-0.7 5.9-2 8-1.1 1.7-3.5 4.1-5.2 5.3-2.6 1.6-4.6 1.9-9.3 1.7-4-0.2-6.9-1-8.7-2.3-1.5-1.1-3.7-4-4.9-6.5-1.6-3.4-2-5.5-1.6-8.5 0.3-2.2 1.5-5.1 2.5-6.5 1-1.4 3.4-3.5 5.2-4.7 2.4-1.6 4.8-2.3 8.4-2.3zm-10.3 9.8c-0.6 1.2-1.1 3.9-1.1 6 0 2 0.9 5.2 2 7 1.4 2.3 3.1 3.5 6 4.2 3.2 0.8 4.7 0.7 7.8-0.7 2.2-1.1 4.5-3.2 5.6-5.3 1.5-2.7 1.7-4.4 1.1-7.5-0.4-2.4-1.9-5.1-3.6-6.7-2.3-2.3-3.8-2.8-7.6-2.8-3 0-5.6 0.7-6.9 1.8-1.2 0.9-2.7 2.7-3.3 4z"/><path class="a" d="m65.1 7.3c-0.5 1.2-13.4 36.5-28.9 78.4-15.4 41.9-28 76.7-28.1 77.2-0.1 0.8 7.4 1.1 23.4 1.1h23.5c2.8-6.6 9.2-23.7 16.1-42.3l12.4-33.7c49.5 0 55.4 0.3 55.1 1.2-0.1 0.7-6.2 17.3-13.4 36.8-7.3 19.5-13.2 36.1-13.2 36.7 0 1 4.7 1.2 20.9 1 19.2-0.2 21.2-0.4 23.7-2.2 1.4-1.1 3.5-3.1 4.5-4.5 1-1.4 14.2-35.8 29.2-76.5 15.1-40.7 27.1-74.3 26.8-74.7-0.3-0.5-11.1-0.7-24-0.5l-23.4 0.2-22.2 60.5c-43 0-55.5-0.3-55.5-0.8 0.1-0.4 4.9-13.8 10.9-29.7 5.9-16 10.6-29.3 10.4-29.8-0.1-0.4-10.9-0.7-23.8-0.7-23.5 0-23.5 0-24.4 2.2zm153.4 76.2c-16 43.2-28.9 78.8-28.8 79.3 0.2 0.4 10.9 0.8 23.9 0.8h23.6c44.1-119.4 57.1-155 57.3-156.3l0.5-2.2h-47.6zm107.8-75.7c-0.6 1.5-13.7 37.1-29.1 79-15.5 42-28.1 76.5-28.1 76.8 0 0.2 10.8 0.5 24 0.5 18.3 0 24-0.3 24.3-1.3 0.2-0.7 5.3-14.4 11.3-30.6l10.9-29.3 11-8.5c24.6 47.4 33.1 62.6 34.8 64.5 1.8 1.8 4.7 3.7 6.7 4.2 1.9 0.5 12.6 1 23.7 1 11.1 0 20.4-0.4 20.7-0.8 0.2-0.4-6.1-13.3-14.1-28.7-7.9-15.4-19.1-37-24.9-48l-10.4-20c60.4-46.5 77.7-60.4 77.4-60.8-0.2-0.4-8-0.7-17.2-0.7h-16.7c-58.6 44.9-75.7 57.9-76 57.7-0.2-0.1 4.3-12.8 10-28.2 5.7-15.4 10.4-28.4 10.4-28.8 0-0.4-10.7-0.7-23.9-0.7h-23.9z"/><path fill-rule="evenodd" class="a" d="m476.9 6h45.1l0.5 3.3c0.2 1.7 2.1 25 4 51.7 2 26.7 4 49.3 4.3 50.3 0.5 1.3 9.8-11.8 72.7-105.3h12.8c7 0 12.7 0.3 12.7 0.7 0.1 0.5-23 35.2-51.3 77.3-39.9 59.4-52.1 76.9-54.8 78.5-3 1.8-5.2 2-33.4 2l-5.6-71.5c-3.1-39.3-6-75-6.3-79.3zm193 0c17 0 22 0.3 22 1.3 0 0.7-13 36.3-57.7 157.3l-21.9 0.2c-12 0.1-22.1-0.1-22.5-0.5-0.3-0.4 12.2-35.2 27.7-77.3 15.6-42 28.8-77.5 29.4-78.7 1-2.2 1.2-2.3 23-2.3zm164 0l-0.4 2.3c-0.2 1.2-1.8 6-6.6 18.7l-34.7 0.1c-33 0-34.9 0.1-38 2-1.8 1.1-3.9 3.3-4.8 4.9-0.8 1.7-1.5 4.7-1.5 6.8q0 3.8 3.2 8.7c1.7 2.8 9.9 12 18.3 20.5 8.3 8.6 17.1 18.5 19.5 22 2.4 3.6 5.3 9 6.3 12 1.1 3.1 2.2 8.5 2.5 12 0.3 4.4 0 8.6-1.1 12.8-0.9 3.4-2.9 8.6-4.3 11.5-1.5 2.9-5.2 7.8-8.3 10.9-3.5 3.5-8 6.8-12.1 8.7-3.5 1.7-9.4 3.5-13 4.1-3.7 0.6-25.2 1-51.2 1-24.6 0-44.7-0.3-44.7-0.7 0-0.4 1.5-5.1 6.9-20.3h37c30.9 0 37.5-0.2 40-1.5 1.7-0.8 3.9-2.9 5-4.7 1.2-2 2-5 2.1-7.8 0-3.6-0.8-5.6-4.2-10.5-2.2-3.3-6-8.2-8.4-11-2.3-2.7-8.6-9.7-13.9-15.5-5.4-5.7-11.1-12.5-12.8-15-1.8-2.4-4.2-7.4-5.4-11-1.6-4.4-2.3-8.8-2.4-14 0-4.7 0.7-9.9 2-14 1.1-3.5 3.8-9.3 6-12.7 2.3-3.5 6.3-8 9.3-10.2 2.9-2.1 7.5-4.9 10.2-6 2.8-1.2 7.3-2.5 10-3 2.8-0.4 24.1-0.9 89.5-1.1zm53.5 0c17.6 0 22.5 0.3 22.2 1.3-0.2 0.7-13.1 35.9-28.7 78.2-15.6 42.4-28.8 77.6-29.4 78.3-0.8 1-6.2 1.3-22.8 1.3-12.6 0-21.8-0.4-21.8-1-0.1-0.5 12.7-35.7 28.5-78.2 15.7-42.6 28.8-77.9 29-78.6 0.4-0.9 5.9-1.3 23-1.3zm218.8 0h29.2l21 53c11.6 29.2 21.3 52.5 21.7 51.8 0.3-0.7 8.3-22 17.6-47.3 9.4-25.3 18-48.5 21.2-57.5h11.5c7 0 11.5 0.4 11.5 1 0 0.6-13 36.3-29 79.3-15.9 43-29 78.4-29 78.5 0 0.1-5.5 0.1-12.2 0-10.3-0.2-12.8-0.6-15.8-2.3-1.9-1.2-4.2-3.4-5.2-5-0.9-1.6-9.6-24.3-19.3-50.5-9.6-26.1-17.9-47.8-18.3-48.1-0.3-0.4-9.5 23.2-40 105.6l-11.8 0.4c-11.1 0.3-11.8 0.2-11.3-1.5 0.4-1 13.6-36.8 29.4-79.6zm154.8 6.7c1.3 0.3 3 1 3.7 1.6 0.8 0.7 1.3 1.9 1.3 2.7 0 0.8-0.6 2-1.3 2.7-0.9 0.9-1 1.6-0.1 2.5 0.6 0.7 1.4 2.5 1.7 4 0.5 2.3 0.3 2.8-1.3 2.8q-2 0-3-3-1-3-3-3c-1.6 0-2 0.7-2 3 0 2.3-0.5 3-2 3-1.9 0-2-0.7-2-8 0-8 0-8 2.7-8.4 1.5-0.2 3.9-0.1 5.3 0.1zm-3 7.3c0.5 0 1.6-0.2 2.5-0.5 0.8-0.3 1.5-1.2 1.5-2 0-0.9-1-1.5-2.5-1.5-1.9 0-2.5 0.5-2.5 2 0 1.1 0.4 2 1 2z"/></svg>