<svg xmlns="http://www.w3.org/2000/svg" fill="#f97316" viewBox="0 0 298.25 298.25" xml:space="preserve"><path d="M232.125 149c0-46.116-37.384-83.5-83.5-83.5s-83.5 37.384-83.5 83.5v83.25h167zm-83.917-30.75c-16.956 0-30.75 13.794-30.75 30.75 0 4.143-3.357 7.5-7.5 7.5s-7.5-3.357-7.5-7.5c0-25.227 20.523-45.75 45.75-45.75 4.143 0 7.5 3.357 7.5 7.5s-3.357 7.5-7.5 7.5m100.948 129H49.842c-13.496 0-24.717 15.596-24.717 29.097v21.903h248v-21.903c0-13.501-10.475-29.097-23.969-29.097M148.625 50c4.143 0 7.5-3.357 7.5-7.5v-35c0-4.143-3.357-7.5-7.5-7.5s-7.5 3.357-7.5 7.5v35c0 4.143 3.357 7.5 7.5 7.5M89.819 60.445a7.5 7.5 0 0 0 10.245 2.745 7.5 7.5 0 0 0 2.745-10.245l-17.5-30.311a7.5 7.5 0 0 0-12.99 7.5zM23.761 84.306l30.311 17.5a7.497 7.497 0 0 0 10.245-2.745 7.5 7.5 0 0 0-2.745-10.245l-30.311-17.5a7.5 7.5 0 0 0-10.245 2.745 7.5 7.5 0 0 0 2.745 10.245M198.186 63.19a7.497 7.497 0 0 0 10.245-2.745l17.5-30.311a7.5 7.5 0 0 0-2.745-10.245 7.5 7.5 0 0 0-10.245 2.745l-17.5 30.311a7.5 7.5 0 0 0 2.745 10.245m42.25 39.622a7.46 7.46 0 0 0 3.743-1.006l30.311-17.5a7.5 7.5 0 0 0-7.5-12.99l-30.311 17.5a7.5 7.5 0 0 0 3.757 13.996"/></svg>