<svg xmlns="http://www.w3.org/2000/svg" width="512" height="512"><path d="m136.518-.267 3.21-.014c3.548-.013 7.097-.011 10.646-.01l7.634-.02q9.292-.023 18.585-.023 7.558-.002 15.115-.012 21.445-.026 42.89-.025h4.672c12.492.001 24.984-.018 37.476-.046q19.257-.043 38.514-.04c7.204 0 14.406-.005 21.61-.027q10.164-.029 20.33-.006 3.726.003 7.45-.015c3.4-.015 6.797-.006 10.196.01l2.956-.032C389.666-.408 399.173 4.244 408 12c8.06 8.569 13.328 18.724 13.257 30.61l.01 2.273c.01 2.515.005 5.03 0 7.545l.014 5.461c.012 5.005.012 10.01.01 15.014 0 5.397.01 10.794.02 16.19q.024 15.863.023 31.725.001 12.894.012 25.787.026 36.552.025 73.104v7.969c-.001 21.319.018 42.637.046 63.956q.043 32.832.04 65.662c0 12.29.006 24.579.027 36.868q.029 15.696.009 31.392a3580 3580 0 0 0 .01 16.014q.024 7.334-.004 14.669-.005 2.65.012 5.297c.088 14.924-2.41 25.97-12.511 37.464-5.02 4.722-10.616 8.395-17 11l-2.469 1.035c-4.735 1.294-9.162 1.248-14.05 1.232l-3.208.014c-3.55.013-7.098.011-10.647.01q-3.816.008-7.634.02-9.293.023-18.585.023-7.558.001-15.115.012a32086 32086 0 0 1-45.224.025h-2.338c-12.492-.001-24.984.018-37.476.046q-19.257.043-38.514.04c-7.204 0-14.406.005-21.61.027q-10.166.029-20.331.005-3.726-.003-7.45.015c-3.4.015-6.797.006-10.196-.01l-2.956.032c-11.863-.118-21.37-4.77-30.197-12.526-8.06-8.569-13.328-18.724-13.257-30.61l-.01-2.273c-.01-2.515-.005-5.03 0-7.545l-.014-5.461a5367 5367 0 0 1-.01-15.014c0-5.397-.01-10.794-.02-16.19q-.024-15.863-.023-31.725-.001-12.894-.012-25.787-.026-36.552-.025-73.104v-7.969c.001-21.319-.018-42.637-.046-63.956q-.043-32.832-.04-65.662c0-12.29-.006-24.579-.027-36.868q-.029-15.696-.009-31.392c.007-5.338.007-10.676-.01-16.014q-.023-7.334.004-14.669.005-2.65-.012-5.297C90.401 35.54 92.9 24.494 103 13c5.02-4.722 10.616-8.395 17-11l2.469-1.035c4.735-1.294 9.162-1.248 14.05-1.232M202 85l-1.797 1.746c-13.732 14.078-18.495 32.708-18.445 51.8.251 19.105 7.71 35.09 20.617 49.017L205 190l1.746 1.797c14.078 13.732 32.708 18.495 51.8 18.445 19.105-.251 35.09-7.71 49.017-20.617L310 187l1.797-1.746c13.732-14.078 18.495-32.708 18.445-51.8-.251-19.105-7.71-35.09-20.617-49.016-.866-.805-1.732-1.61-2.625-2.438l-1.746-1.797c-14.078-13.732-32.708-18.495-51.8-18.445C233.476 62.02 215.629 70.324 202 85m-45.812 160.438c-3.939 4.613-4.633 7.152-4.504 13.054.466 3.7 1.842 5.766 4.316 8.508 5.454 4.056 10.758 4.125 17.388 4.134l2.225.007q3.683.007 7.367.004l5.288.01q7.177.013 14.356.012l8.97.006q15.652.013 31.303.012 14.584.001 29.17.026 12.524.019 25.052.018 7.479-.002 14.958.013 7.035.014 14.07.003 2.58-.003 5.158.007c2.351.008 4.702.003 7.053-.005l3.984.002c5.368-.365 9.365-1.128 13.47-4.686 3.939-4.614 4.633-7.153 4.504-13.055-.466-3.7-1.842-5.766-4.316-8.508-5.454-4.056-10.758-4.125-17.388-4.134l-2.225-.007q-3.683-.007-7.367-.004l-5.288-.01q-7.177-.013-14.356-.012l-8.97-.006q-15.652-.013-31.303-.012-14.584-.001-29.17-.026-12.524-.019-25.052-.018-7.479.002-14.958-.013-7.035-.014-14.07-.003-2.58.003-5.158-.007c-2.351-.008-4.702-.003-7.053.005l-3.984-.002c-5.368.365-9.365 1.128-13.47 4.687m-3.063 62.687c-1.69 4.318-1.785 8.302-1.125 12.875 2.163 4.406 4.397 7.199 9 9 5.043.684 8.83.574 13.438-1.687 3.359-3.032 5.256-5.054 5.878-9.645.266-5.718-.348-9.27-4.316-13.668-3.837-3.386-7.634-3.513-12.562-3.352-4.663.673-7.29 3.05-10.313 6.477m60 0c-1.69 4.318-1.785 8.302-1.125 12.875 2.163 4.406 4.397 7.199 9 9 5.043.684 8.83.574 13.438-1.687 3.359-3.032 5.256-5.054 5.878-9.645.266-5.718-.348-9.27-4.316-13.668-3.837-3.386-7.634-3.513-12.562-3.352-4.663.673-7.29 3.05-10.313 6.477m60 0c-1.69 4.318-1.785 8.302-1.125 12.875 2.163 4.406 4.397 7.199 9 9 5.043.684 8.83.574 13.438-1.687 3.359-3.032 5.256-5.054 5.878-9.645.266-5.718-.348-9.27-4.316-13.668-3.837-3.386-7.634-3.513-12.562-3.352-4.663.673-7.29 3.05-10.313 6.477m60 0c-1.69 4.318-1.785 8.302-1.125 12.875 2.163 4.406 4.397 7.199 9 9 5.043.684 8.83.574 13.438-1.687 3.359-3.032 5.256-5.054 5.878-9.645.266-5.718-.348-9.27-4.316-13.668-3.837-3.386-7.634-3.513-12.562-3.352-4.663.673-7.29 3.05-10.313 6.477m-180 60c-1.69 4.318-1.785 8.302-1.125 12.875 2.163 4.406 4.397 7.199 9 9 5.043.684 8.83.574 13.438-1.687 3.359-3.032 5.256-5.054 5.878-9.645.266-5.718-.348-9.27-4.316-13.668-3.837-3.386-7.634-3.513-12.562-3.352-4.663.673-7.29 3.05-10.313 6.477m60 0c-1.69 4.318-1.785 8.302-1.125 12.875 2.163 4.406 4.397 7.199 9 9 5.043.684 8.83.574 13.438-1.687 3.359-3.032 5.256-5.054 5.878-9.645.266-5.718-.348-9.27-4.316-13.668-3.837-3.386-7.634-3.513-12.562-3.352-4.663.673-7.29 3.05-10.313 6.477M285 374l-1.93 1.805c-8.487 8.778-11.406 20.137-11.455 32.01.212 11.512 4.55 20.826 12.385 29.185l1.805 1.93c8.778 8.487 20.137 11.406 32.01 11.455 11.512-.212 20.826-4.55 29.185-12.385l1.93-1.805c8.487-8.778 11.406-20.137 11.455-32.01-.212-11.512-4.55-20.826-12.385-29.185l-1.805-1.93c-8.778-8.487-20.137-11.406-32.01-11.455-11.512.212-20.826 4.55-29.185 12.385m-131.875 54.125c-1.69 4.318-1.785 8.302-1.125 12.875 2.163 4.406 4.397 7.199 9 9 5.043.684 8.83.574 13.438-1.687 3.359-3.032 5.256-5.054 5.878-9.645.266-5.718-.348-9.27-4.316-13.668-3.837-3.386-7.634-3.513-12.562-3.352-4.663.673-7.29 3.05-10.313 6.477m60 0c-1.69 4.318-1.785 8.302-1.125 12.875 2.163 4.406 4.397 7.199 9 9 5.043.684 8.83.574 13.438-1.687 3.359-3.032 5.256-5.054 5.878-9.645.266-5.718-.348-9.27-4.316-13.668-3.837-3.386-7.634-3.513-12.562-3.352-4.663.673-7.29 3.05-10.313 6.477" fill="#f97316"/><path d="M277 95c10.139 6.144 17.5 13.972 22 25l1.082 2.633c2.911 10.679 2.403 24.68-3.082 34.367-6.144 10.139-13.972 17.5-25 22l-2.633 1.082c-10.679 2.911-24.68 2.403-34.367-3.082-10.139-6.144-17.5-13.972-22-25l-1.082-2.633c-2.911-10.679-2.403-24.68 3.082-34.367 6.144-10.139 13.972-17.5 25-22l2.633-1.082C253.312 89.007 267.313 89.515 277 95m-33.875 33.125c-1.69 4.318-1.785 8.302-1.125 12.875 2.163 4.406 4.397 7.199 9 9 5.043.684 8.83.574 13.438-1.687 3.359-3.032 5.256-5.054 5.878-9.645.266-5.718-.348-9.27-4.316-13.668-3.837-3.386-7.634-3.513-12.562-3.352-4.663.673-7.29 3.05-10.313 6.477" fill="#f97316"/><path d="M322 391c4.616 2.186 6.729 4.496 9 9 .829 5.548.724 10.471-1.687 15.563-3.102 3.269-5.697 5.196-10.215 5.87-6.149.009-10.411.014-15.098-4.433-3.89-5.441-3.79-10.519-3-17 4.36-9.206 11.651-10.14 21-9" fill="#0b1f33"/></svg>