<svg viewBox="0 0 64 64" fill="#f97316" style="fill-rule:evenodd;clip-rule:evenodd;stroke-linejoin:round;stroke-miterlimit:2" xml:space="preserve" xmlns="http://www.w3.org/2000/svg"><path d="M24.5 21h-7.191a1 1 0 0 0-.7.286A21.93 21.93 0 0 0 10 37c0 12.142 9.858 22 22 22s22-9.858 22-22c0-6.153-2.531-11.72-6.609-15.714a1 1 0 0 0-.7-.286H39.5v-8H49a3 3 0 0 0 3-3V4a1 1 0 0 0-1-1H13a1 1 0 0 0-1 1v6a3 3 0 0 0 3 3h9.5zm19.514 31.986V46c0-3.183-1.264-6.235-3.515-8.485A12 12 0 0 0 32.014 34h-.028a12 12 0 0 0-8.485 3.515A12 12 0 0 0 19.986 46v6.986A19.9 19.9 0 0 0 32 57c4.507 0 8.668-1.494 12.014-4.014M32 36.197c-4.967 0-9 4.033-9 9s4.033 9 9 9 9-4.033 9-9-4.033-9-9-9m1.418 11.35a.26.26 0 0 0-.049-.391 2.47 2.47 0 0 0-1.373-.437c-.506 0-.976.171-1.37.435a.262.262 0 0 0-.049.392l1.229 1.369a.256.256 0 0 0 .381 0zm-1.421-1.967c.828 0 1.592.274 2.207.734a.26.26 0 0 0 .349-.028l.44-.489a.26.26 0 0 0-.028-.376c-.822-.638-1.85-1.045-2.968-1.045s-2.144.406-2.964 1.041a.26.26 0 0 0-.028.376l.439.49c.09.101.24.11.348.029a3.67 3.67 0 0 1 2.205-.732m0-2.376c1.438 0 2.756.503 3.796 1.337.107.086.26.077.352-.025l.396-.44a.26.26 0 0 0-.025-.375C35.281 42.691 33.711 42 31.997 42c-1.712 0-3.28.689-4.512 1.696a.26.26 0 0 0-.026.374l.395.441a.255.255 0 0 0 .351.026 6.04 6.04 0 0 1 3.792-1.333M45 26a1 1 0 1 1 0 2 1 1 0 0 1 0-2m-4 0a1 1 0 1 1 0 2 1 1 0 0 1 0-2m-3.5-5h-11v-8h11zm-7.75-3h4.5a1 1 0 0 0 0-2h-4.5a1 1 0 0 0 0 2M23 5h18v1a.997.997 0 0 1-1 1H24a.997.997 0 0 1-1-1z"/></svg>