<svg version="1.2" xmlns="http://www.w3.org/2000/svg" viewBox="0 0 197 197" width="197" height="197"><style>.a{fill:#f97316}.b{fill:#0b1f33}</style><path class="a" d="m100.2 40.1v37.5h-39.2q-1.4 0.6-1.4 2.3 0 0.9 0.5 1.9l11.6 8.2q18.1 12.8 18.1 34.5 0 15.6-8.8 26.6-8.6 10.9-20.9 10.9h-59.5v-37.5h49.6q1.4-0.6 1.4-2.2 0-1-0.5-1.9l-11.6-8.3q-18.1-12.7-18.1-34.5 0-15.5 8.6-26.4 8.8-11.1 21.1-11.1z"/><path class="b" d="m196.2 40.1v121.9h-29.7v-46.9h-29.8v46.9h-29.7v-121.9h29.7v46.9h29.8v-46.9z"/></svg>