<svg xmlns="http://www.w3.org/2000/svg" viewBox="0 0 512 512" xml:space="preserve"><path style="fill:#f97316" d="M443.351 207.664v-7.525c0-10.766-8.728-19.494-19.494-19.494H414.8v-5.306c0-87.563-71.237-158.8-158.802-158.8s-158.8 71.238-158.8 158.8v5.306h-9.057c-10.766 0-19.494 8.728-19.494 19.494v7.525C30.218 211.146 0 243.529 0 282.852s30.218 71.705 68.649 75.188v7.525c0 10.766 8.728 19.494 19.494 19.494h57.101c10.766 0 19.494-8.728 19.494-19.494V200.139c0-10.766-8.728-19.494-19.494-19.494h-9.057v-5.306c0-66.065 53.748-119.813 119.814-119.813s119.814 53.748 119.814 119.813v5.306h-9.057c-10.766 0-19.494 8.728-19.494 19.494v165.427c0 10.766 8.728 19.494 19.494 19.494h6.128c-8.159 26.468-31.065 46.8-69.02 46.8-7.21-14.568-22.227-24.614-39.553-24.614H247.69c-24.322 0-44.108 19.787-44.108 44.108 0 24.322 19.786 44.108 44.108 44.108h16.623c17.326 0 32.344-10.046 39.553-24.614 60.663 0 100.254-38.76 109.098-85.788h10.896c10.766 0 19.494-8.728 19.494-19.494v-7.525c38.43-3.483 68.647-35.866 68.647-75.19-.001-39.322-30.219-71.705-68.65-75.187M68.649 318.732c-16.87-3.222-29.661-18.085-29.661-35.88 0-17.794 12.792-32.658 29.661-35.88zm57.1 27.34h-18.113v-126.44h18.113zm138.562 110.403h-16.623a5.126 5.126 0 0 1-5.12-5.12 5.126 5.126 0 0 1 5.12-5.12h16.623a5.125 5.125 0 0 1 5.12 5.12 5.125 5.125 0 0 1-5.12 5.12m140.053-229.644v119.24h-18.113V219.633h18.113zm38.987 91.901v-71.76c16.87 3.222 29.661 18.086 29.661 35.88s-12.791 32.658-29.661 35.88"/></svg>