<svg version="1.2" xmlns="http://www.w3.org/2000/svg" viewBox="0 0 800 51" width="800" height="51"><style>.a{fill:#f97316}.b{fill:#fafbfc}</style><path class="a" d="m100.2 0.1v15.6h-39.2q-1.4 0.3-1.4 1 0 0.4 0.5 0.8l11.6 3.4q18.1 5.3 18.1 14.4 0 6.5-8.8 11.2-8.6 4.5-20.9 4.5h-59.5v-15.7h49.6q1.4-0.2 1.4-0.9 0-0.4-0.5-0.8l-11.6-3.4q-18.1-5.4-18.1-14.5 0-6.5 8.6-11 8.8-4.6 21.1-4.6zm65.2 0l32.7 50.9h-31.2l-4-6.3h-33.6l-4 6.3h-31.3l32.7-50.9zm-29.1 33.7h19.6l-9.8-15.2zm158-33.7v15.6h-59.5v4h44.6v11.7h-44.6v19.6h-29.7v-50.9zm97 35.2v15.7h-89.2v-50.9h89.2v15.6h-59.5v4h44.6v11.7h-44.6v3.9z"/><path class="b" d="m488.2 0.1v50.9h-29.7v-19.6h-29.8v19.6h-29.7v-50.9h29.7v19.6h29.8v-19.6zm103.4 25.4q0 10.5-14.3 18.1-14.1 7.4-34 7.4-20.1 0-34.2-7.4-14.1-7.5-14.1-18.1 0-10.5 14.1-17.9 14.3-7.5 34.2-7.5 19.9 0 34 7.5 14.3 7.4 14.3 17.9zm-29.7 0q0-4-5.5-6.9-5.5-2.9-13.1-2.9-7.7 0-13.2 2.9-5.4 2.9-5.4 6.9 0 4.1 5.4 7 5.5 2.8 13.2 2.8 7.7 0 13.1-2.8 5.5-2.9 5.5-7zm141.1-25.4v50.9h-29.7v-17.2l-22.3 17.2-22.3-17.2v17.2h-29.7v-50.9h29.7l22.3 17.2 22.3-17.2zm97.1 35.2v15.7h-89.2v-50.9h89.2v15.6h-59.4v4h44.6v11.7h-44.6v3.9z"/></svg>